<?xml version="1.0" encoding="UTF-8"?>
<!DOCTYPE svg PUBLIC "-//W3C//DTD SVG 1.1//EN" "http://www.w3.org/Graphics/SVG/1.1/DTD/svg11.dtd">
<!-- Creator: CorelDRAW -->
<svg xmlns="http://www.w3.org/2000/svg" xml:space="preserve" width="51.528mm" height="7.38mm" style="shape-rendering:geometricPrecision; text-rendering:geometricPrecision; image-rendering:optimizeQuality; fill-rule:evenodd; clip-rule:evenodd"
viewBox="0 0 51.528 7.38"
 xmlns:xlink="http://www.w3.org/1999/xlink">
 <defs>
  <style type="text/css">
   <![CDATA[
    .fil0 {fill:#E62129}
   ]]>
  </style>
 </defs>
 <g id="图层_x0020_1">
  <metadata id="CorelCorpID_0Corel-Layer"/>
  <path class="fil0" d="M25.9427 1.9712l3.85 0c0.2263,0 0.4115,0.201 0.4115,0.4464l0 2.5778c0,0.2455 -0.1852,0.4464 -0.4115,0.4464l-3.85 0c-0.2263,0 -0.4114,-0.2009 -0.4114,-0.4464l0 -2.5778c0,-0.2455 0.185,-0.4464 0.4114,-0.4464zm16.034 1.6607l-1.2974 0 0 -0.859 -6.0697 0 0 0.859 -1.2973 0 0 -1.7673c2.3397,0 5.8523,0 8.1921,0 0.2598,0 0.4723,0.1977 0.4723,0.4393 0,0.3337 0,0.9943 0,1.328zm0 -2.4367l-1.5332 0 -0.0864 0.2771 -1.4832 0 0.0865 -0.2771 -2.6318 0 0.0865 0.2771 -1.4831 0 -0.0864 -0.2771 -1.5333 0 0 -0.9083 1.25 0 -0.0866 -0.2773 1.4832 0 0.0864 0.2773 3.1984 0 0.0865 -0.2773 1.4831 0 -0.0865 0.2773 1.2499 0 0 0.9083zm-4.3928 2.0911l-0.451 0.7379 4.8437 0c0,0.762 0,1.7852 0,2.5472 0,0.4497 -0.3958,0.818 -0.8793,0.818l-0.0685 0 0 0.0001c-0.7803,0 -1.2549,0 -2.0352,0l0.4084 -0.9083 1.2773 0 0 -1.5481 -4.1018 0 -1.5014 2.4566 -1.483 0 1.5012 -2.4566 -1.782 0 0 -0.9089 2.3375 0 0.4509 -0.7379 1.4832 0zm13.8944 0.3456l-5.0445 0 0 3.7576 -1.2976 0 0 -3.7576 -2.3223 0 0 -0.9083 2.3223 0 0 -2.7139 1.2976 0 0 0.8179 4.1762 0 0 0.9083 -4.1762 0 0 0.9877 5.0445 0 0 0.9083zm-4.0391 0.393l2.4183 3.1053 1.483 0 -2.4182 -3.1053 -1.4831 0zm-23.9778 -3.7382l-4.9006 0c-1.1078,0 -2.0141,0.9835 -2.0141,2.1856l0 2.4663c0,1.202 0.9062,2.1855 2.0141,2.1855l4.9006 0 0 -1.6823 -4.9509 0c-0.2263,0 -0.4114,-0.2009 -0.4114,-0.4464l0 -2.5778c0,-0.2455 0.185,-0.4464 0.4114,-0.4464l4.9509 0 0 -1.6845zm-21.9588 1.6846l0 5.1528 -1.5526 0 0 -6.8373c1.8796,0 3.7593,0 5.6388,0 1.1781,0 2.1419,1.0458 2.1419,2.3241l0 0.0001c0,1.2783 -0.9638,2.3241 -2.1419,2.3241l-0.1284 0 1.7814 2.189 -2.0729 0 -3.1523 -3.8736 1.643 0 0.4299 0 1.4964 0c0.3241,0 0.5894,-0.2878 0.5894,-0.6395l0 -0.0001c0,-0.3517 -0.2652,-0.6396 -0.5894,-0.6396 -1.3611,0 -2.7223,0 -4.0833,0zm8.7096 -0.0001l3.8501 0c0.2263,0 0.4114,0.201 0.4114,0.4464l0 2.5778c0,0.2455 -0.1851,0.4464 -0.4114,0.4464l-3.8501 0c-0.2263,0 -0.4113,-0.2009 -0.4113,-0.4464l0 -2.5778c0,-0.2455 0.185,-0.4464 0.4113,-0.4464zm3.8027 -1.6845l-3.7523 0c-1.1078,0 -2.0142,0.9835 -2.0142,2.1856l0 2.4663c0,1.202 0.9064,2.1855 2.0142,2.1855l3.7523 0c1.1078,0 2.0142,-0.9834 2.0142,-2.1855l0 -2.4663c0,-1.2021 -0.9064,-2.1856 -2.0142,-2.1856zm15.7305 0l-3.7523 0c-1.1079,0 -2.0142,0.9835 -2.0142,2.1856l0 2.4663c0,1.202 0.9063,2.1855 2.0142,2.1855l3.7523 0c1.1078,0 2.0141,-0.9834 2.0141,-2.1855l0 -2.4663c0,-1.2021 -0.9063,-2.1856 -2.0141,-2.1856z"/>
 </g>
</svg>
